<svg xmlns="http://www.w3.org/2000/svg" viewBox="0 0 32 32" fill="currentColor">
  <path d="M21.4766 21.7885H20.3411C20.2855 21.7885 20.2537 21.7564 20.2457 21.6923V17.6959C20.2457 17.6378 20.2775 17.6058 20.3411 17.5998H21.4766C21.9276 17.5998 22.3181 17.6779 22.6479 17.8341C22.9777 17.9904 23.232 18.2248 23.4108 18.5373C23.5916 18.8498 23.682 19.2404 23.682 19.7091C23.682 20.1759 23.5916 20.5635 23.4108 20.872C23.23 21.1805 22.9737 21.4109 22.6419 21.5631C22.3121 21.7133 21.9237 21.7885 21.4766 21.7885ZM21.4766 21.1755C21.7786 21.1755 22.0379 21.1224 22.2545 21.0162C22.473 20.9101 22.6409 20.7488 22.7581 20.5325C22.8754 20.3141 22.934 20.0387 22.934 19.7061C22.934 19.3736 22.8754 19.0972 22.7581 18.8768C22.6409 18.6544 22.473 18.4882 22.2545 18.378C22.0379 18.2678 21.7786 18.2127 21.4766 18.2127H20.9819V21.1755H21.4766Z" fill="currentColor"/>
  <path d="M12.1422 21.7885H9.30348C9.1644 21.7885 9.08493 21.7083 9.06506 21.5481V11.5571C9.06506 11.4119 9.14453 11.3317 9.30348 11.3167H12.1422C13.2698 11.3167 14.2459 11.512 15.0704 11.9026C15.895 12.2933 16.5308 12.8792 16.9778 13.6605C17.4298 14.4417 17.6558 15.4183 17.6558 16.5901C17.6558 17.757 17.4298 18.7261 16.9778 19.4973C16.5258 20.2685 15.885 20.8445 15.0555 21.2251C14.2309 21.6007 13.2599 21.7885 12.1422 21.7885ZM12.1422 20.256C12.8973 20.256 13.5455 20.1233 14.0869 19.8579C14.6333 19.5924 15.053 19.1893 15.3461 18.6484C15.6392 18.1026 15.7857 17.414 15.7857 16.5826C15.7857 15.7513 15.6392 15.0602 15.3461 14.5093C15.053 13.9534 14.6333 13.5378 14.0869 13.2623C13.5455 12.9869 12.8973 12.8492 12.1422 12.8492H10.9054V20.256H12.1422Z" fill="currentColor"/>
  <path fillRule="evenodd" clipRule="evenodd" d="M5.90741 7.84615C6.96084 7.84615 7.81481 6.98516 7.81481 5.92308C7.81481 4.86099 6.96084 4 5.90741 4C4.85397 4 4 4.86099 4 5.92308C4 6.98516 4.85397 7.84615 5.90741 7.84615ZM5.90741 6.88462C6.43412 6.88462 6.86111 6.45412 6.86111 5.92308C6.86111 5.39203 6.43412 4.96154 5.90741 4.96154C5.38069 4.96154 4.9537 5.39203 4.9537 5.92308C4.9537 6.45412 5.38069 6.88462 5.90741 6.88462Z" fill="currentColor"/>
  <path fillRule="evenodd" clipRule="evenodd" d="M15.9213 7.84615C16.9747 7.84615 17.8287 6.98516 17.8287 5.92308C17.8287 4.86099 16.9747 4 15.9213 4C14.8679 4 14.0139 4.86099 14.0139 5.92308C14.0139 6.98516 14.8679 7.84615 15.9213 7.84615ZM15.9213 6.88462C16.448 6.88462 16.875 6.45412 16.875 5.92308C16.875 5.39203 16.448 4.96154 15.9213 4.96154C15.3946 4.96154 14.9676 5.39203 14.9676 5.92308C14.9676 6.45412 15.3946 6.88462 15.9213 6.88462Z" fill="currentColor"/>
  <path fillRule="evenodd" clipRule="evenodd" d="M25.9352 7.84615C26.9886 7.84615 27.8426 6.98516 27.8426 5.92308C27.8426 4.86099 26.9886 4 25.9352 4C24.8817 4 24.0278 4.86099 24.0278 5.92308C24.0278 6.98516 24.8817 7.84615 25.9352 7.84615ZM25.9352 6.88462C26.4619 6.88462 26.8889 6.45412 26.8889 5.92308C26.8889 5.39203 26.4619 4.96154 25.9352 4.96154C25.4085 4.96154 24.9815 5.39203 24.9815 5.92308C24.9815 6.45412 25.4085 6.88462 25.9352 6.88462Z" fill="currentColor"/>
  <path d="M7.24259 5.44231H14.4907V6.40385H7.24259V5.44231Z" fill="currentColor"/>
  <path d="M17.2565 5.44231H24.5046V6.40385H17.2565V5.44231Z" fill="currentColor"/>
  <path fillRule="evenodd" clipRule="evenodd" d="M15.9213 29C16.9747 29 17.8287 28.139 17.8287 27.0769C17.8287 26.0148 16.9747 25.1538 15.9213 25.1538C14.8679 25.1538 14.0139 26.0148 14.0139 27.0769C14.0139 28.139 14.8679 29 15.9213 29ZM15.9213 28.0385C16.448 28.0385 16.875 27.608 16.875 27.0769C16.875 26.5459 16.448 26.1154 15.9213 26.1154C15.3946 26.1154 14.9676 26.5459 14.9676 27.0769C14.9676 27.608 15.3946 28.0385 15.9213 28.0385Z" fill="currentColor"/>
  <path fillRule="evenodd" clipRule="evenodd" d="M5.90741 29C6.96084 29 7.81481 28.139 7.81481 27.0769C7.81481 26.0148 6.96084 25.1538 5.90741 25.1538C4.85397 25.1538 4 26.0148 4 27.0769C4 28.139 4.85397 29 5.90741 29ZM5.90741 28.0385C6.43412 28.0385 6.86111 27.608 6.86111 27.0769C6.86111 26.5459 6.43412 26.1154 5.90741 26.1154C5.38069 26.1154 4.9537 26.5459 4.9537 27.0769C4.9537 27.608 5.38069 28.0385 5.90741 28.0385Z" fill="currentColor"/>
  <path d="M7.24259 26.5962H14.4907V27.5577H7.24259V26.5962Z" fill="currentColor"/>
  <path d="M17.2565 26.5962H21.9296V27.5577H17.2565V26.5962Z" fill="currentColor"/>
  <path d="M26.412 22.75C26.412 24.0251 25.9096 25.2479 25.0154 26.1496C24.1211 27.0512 22.9082 27.5577 21.6435 27.5577V26.5962C22.6553 26.5962 23.6256 26.1909 24.341 25.4696C25.0564 24.7483 25.4583 23.7701 25.4583 22.75H26.412Z" fill="currentColor"/>
  <path d="M25.9352 21.1154L28 23.4952H23.8703L25.9352 21.1154Z" fill="currentColor"/>
</svg>
